HIERARCHY
ROOT hip
{
	OFFSET 0.000000 0.000000 0.000000
	CHANNELS 6 Xposition Yposition Zposition Xrotation Zrotation Yrotation 
	JOINT abdomen
	{
		OFFSET 0.000000 3.422050 0.000000
		CHANNELS 3 Xrotation Zrotation Yrotation 
		JOINT chest
		{
			OFFSET 0.000000 8.486693 -0.6844110
			CHANNELS 3 Xrotation Zrotation Yrotation 
			JOINT neck
			{
				OFFSET 0.000000 10.26616 -0.2737640
				CHANNELS 3 Xrotation Zrotation Yrotation 
				JOINT head
				{
					OFFSET 0.000000 3.148285 0.000000
					CHANNELS 3 Xrotation Zrotation Yrotation 
					End Site
					{
						OFFSET 0.000000 3.148289 0.000000
					}
				}
			}
			JOINT lCollar
			{
				OFFSET 3.422053 6.707223 -0.8212930
				CHANNELS 3 Yrotation Zrotation Xrotation 
				JOINT lShldr
				{
					OFFSET 3.285171 0.000000 0.000000
					CHANNELS 3 Zrotation Yrotation Xrotation 
					JOINT lForeArm
					{
						OFFSET 10.12928 0.000000 0.000000
						CHANNELS 3 Yrotation Zrotation Xrotation 
						JOINT lHand
						{
							OFFSET 8.486692 0.000000 0.000000
							CHANNELS 3 Zrotation Yrotation Xrotation 
							End Site
							{
								OFFSET 4.106464 0.000000 0.000000
							}
						}
					}
				}
			}
			JOINT rCollar
			{
				OFFSET -3.558935 6.707223 -0.8212930
				CHANNELS 3 Yrotation Zrotation Xrotation 
				JOINT rShldr
				{
					OFFSET -3.148289 0.000000 0.000000
					CHANNELS 3 Zrotation Yrotation Xrotation 
					JOINT rForeArm
					{
						OFFSET -10.26616 0.000000 0.000000
						CHANNELS 3 Yrotation Zrotation Xrotation 
						JOINT rHand
						{
							OFFSET -8.349810 0.000000 0.000000
							CHANNELS 3 Zrotation Yrotation Xrotation 
							End Site
							{
								OFFSET -4.106464 0.000000 0.000000
							}
						}
					}
				}
			}
		}
	}
	JOINT lThigh
	{
		OFFSET 5.338403 -1.642589 1.368821
		CHANNELS 3 Xrotation Zrotation Yrotation 
		JOINT lShin
		{
			OFFSET -2.053232 -20.12167 0.000000
			CHANNELS 3 Xrotation Zrotation Yrotation 
			JOINT lFoot
			{
				OFFSET 0.000000 -19.30038 -1.231939
				CHANNELS 3 Xrotation Yrotation Zrotation 
				End Site
				{
					OFFSET 0.000000 -2.463878 4.653993
				}
			}
		}
	}
	JOINT rThigh
	{
		OFFSET -5.338403 -1.642589 1.368821
		CHANNELS 3 Xrotation Zrotation Yrotation 
		JOINT rShin
		{
			OFFSET 2.053232 -20.12167 0.000000
			CHANNELS 3 Xrotation Zrotation Yrotation 
			JOINT rFoot
			{
				OFFSET 0.000000 -19.30038 -1.231939
				CHANNELS 3 Xrotation Yrotation Zrotation 
				End Site
				{
					OFFSET 0.000000 -2.463878 4.653993
				}
			}
		}
	}
}
MOTION
Frames:	16
Frame Time:	0.03333333
0.000000 43.52852 0.000000 1.000000 0.000000 0.000000 1.000000 0.000000 0.000000 1.000000 0.000000 0.000000 1.000000 0.000000 0.000000 1.000000 0.000000 0.000000 0.000000 0.000000 1.000000 74.00000 0.000000 -84.00000 -25.00000 0.000000 0.000000 0.000000 0.000000 0.000000 0.000000 0.000000 1.000000 -74.00000 0.000000 -84.00000 25.00000 0.000000 0.000000 0.000000 0.000000 0.000000 0.000000 10.00000 0.000000 1.000000 0.000000 0.000000 1.000000 0.000000 0.000000 0.000000 -10.00000 0.000000 1.000000 0.000000 0.000000 1.000000 0.000000 0.000000 
0.000000 43.52852 0.000000 1.000000 0.000000 0.000000 1.000000 0.000000 0.000000 1.000000 0.000000 0.000000 1.000000 0.000000 0.000000 1.000000 0.000000 0.000000 0.000000 0.000000 1.000000 68.71429 0.000000 -82.28571 -25.00000 0.000000 0.000000 0.000000 0.000000 0.000000 0.000000 0.000000 1.000000 -68.71429 0.000000 -82.28571 25.00000 0.000000 0.000000 0.000000 0.000000 0.000000 0.000000 10.00000 0.000000 1.000000 0.000000 0.000000 1.000000 0.000000 0.000000 0.000000 -10.00000 0.000000 1.000000 0.000000 0.000000 1.000000 0.000000 0.000000 
0.000000 43.52852 0.000000 1.000000 0.000000 0.000000 1.000000 0.000000 0.000000 1.000000 0.000000 0.000000 1.000000 0.000000 0.000000 1.000000 0.000000 0.000000 0.000000 0.000000 1.000000 63.42857 0.000000 -80.57143 -25.00000 0.000000 0.000000 0.000000 0.000000 0.000000 0.000000 0.000000 1.000000 -63.42857 0.000000 -80.57143 25.00000 0.000000 0.000000 0.000000 0.000000 0.000000 0.000000 10.00000 0.000000 1.000000 0.000000 0.000000 1.000000 0.000000 0.000000 0.000000 -10.00000 0.000000 1.000000 0.000000 0.000000 1.000000 0.000000 0.000000 
0.000000 43.52852 0.000000 1.000000 0.000000 0.000000 1.000000 0.000000 0.000000 1.000000 0.000000 0.000000 1.000000 0.000000 0.000000 1.000000 0.000000 0.000000 0.000000 0.000000 1.000000 58.14286 0.000000 -78.85714 -25.00000 0.000000 0.000000 0.000000 0.000000 0.000000 0.000000 0.000000 1.000000 -58.14286 0.000000 -78.85714 25.00000 0.000000 0.000000 0.000000 0.000000 0.000000 0.000000 10.00000 0.000000 1.000000 0.000000 0.000000 1.000000 0.000000 0.000000 0.000000 -10.00000 0.000000 1.000000 0.000000 0.000000 1.000000 0.000000 0.000000 
0.000000 43.52852 0.000000 1.000000 0.000000 0.000000 1.000000 0.000000 0.000000 1.000000 0.000000 0.000000 1.000000 0.000000 0.000000 1.000000 0.000000 0.000000 0.000000 0.000000 1.000000 52.85714 0.000000 -77.14286 -25.00000 0.000000 0.000000 0.000000 0.000000 0.000000 0.000000 0.000000 1.000000 -52.85714 0.000000 -77.14286 25.00000 0.000000 0.000000 0.000000 0.000000 0.000000 0.000000 10.00000 0.000000 1.000000 0.000000 0.000000 1.000000 0.000000 0.000000 0.000000 -10.00000 0.000000 1.000000 0.000000 0.000000 1.000000 0.000000 0.000000 
0.000000 43.52852 0.000000 1.000000 0.000000 0.000000 1.000000 0.000000 0.000000 1.000000 0.000000 0.000000 1.000000 0.000000 0.000000 1.000000 0.000000 0.000000 0.000000 0.000000 1.000000 47.57143 0.000000 -75.42857 -25.00000 0.000000 0.000000 0.000000 0.000000 0.000000 0.000000 0.000000 1.000000 -47.57143 0.000000 -75.42857 25.00000 0.000000 0.000000 0.000000 0.000000 0.000000 0.000000 10.00000 0.000000 1.000000 0.000000 0.000000 1.000000 0.000000 0.000000 0.000000 -10.00000 0.000000 1.000000 0.000000 0.000000 1.000000 0.000000 0.000000 
0.000000 43.52852 0.000000 1.000000 0.000000 0.000000 1.000000 0.000000 0.000000 1.000000 0.000000 0.000000 1.000000 0.000000 0.000000 1.000000 0.000000 0.000000 0.000000 0.000000 1.000000 42.28571 0.000000 -73.71429 -25.00000 0.000000 0.000000 0.000000 0.000000 0.000000 0.000000 0.000000 1.000000 -42.28571 0.000000 -73.71429 25.00000 0.000000 0.000000 0.000000 0.000000 0.000000 0.000000 10.00000 0.000000 1.000000 0.000000 0.000000 1.000000 0.000000 0.000000 0.000000 -10.00000 0.000000 1.000000 0.000000 0.000000 1.000000 0.000000 0.000000 
0.000000 43.52852 0.000000 1.000000 0.000000 0.000000 1.000000 0.000000 0.000000 1.000000 0.000000 0.000000 1.000000 0.000000 0.000000 1.000000 0.000000 0.000000 0.000000 0.000000 1.000000 37.00000 0.000000 -72.00000 -25.00000 0.000000 0.000000 0.000000 0.000000 0.000000 0.000000 0.000000 1.000000 -37.00000 0.000000 -72.00000 25.00000 0.000000 0.000000 0.000000 0.000000 0.000000 0.000000 10.00000 0.000000 1.000000 0.000000 0.000000 1.000000 0.000000 0.000000 0.000000 -10.00000 0.000000 1.000000 0.000000 0.000000 1.000000 0.000000 0.000000 
0.000000 43.52852 0.000000 1.000000 0.000000 0.000000 1.000000 0.000000 0.000000 1.000000 0.000000 0.000000 1.000000 0.000000 0.000000 1.000000 0.000000 0.000000 0.000000 0.000000 1.000000 31.71428 0.000000 -70.28571 -25.00000 0.000000 0.000000 0.000000 0.000000 0.000000 0.000000 0.000000 1.000000 -31.71428 0.000000 -70.28571 25.00000 0.000000 0.000000 0.000000 0.000000 0.000000 0.000000 10.00000 0.000000 1.000000 0.000000 0.000000 1.000000 0.000000 0.000000 0.000000 -10.00000 0.000000 1.000000 0.000000 0.000000 1.000000 0.000000 0.000000 
0.000000 43.52852 0.000000 1.000000 0.000000 0.000000 1.000000 0.000000 0.000000 1.000000 0.000000 0.000000 1.000000 0.000000 0.000000 1.000000 0.000000 0.000000 0.000000 0.000000 1.000000 26.42857 0.000000 -68.57143 -25.00000 0.000000 0.000000 0.000000 0.000000 0.000000 0.000000 0.000000 1.000000 -26.42857 0.000000 -68.57143 25.00000 0.000000 0.000000 0.000000 0.000000 0.000000 0.000000 10.00000 0.000000 1.000000 0.000000 0.000000 1.000000 0.000000 0.000000 0.000000 -10.00000 0.000000 1.000000 0.000000 0.000000 1.000000 0.000000 0.000000 
0.000000 43.52852 0.000000 1.000000 0.000000 0.000000 1.000000 0.000000 0.000000 1.000000 0.000000 0.000000 1.000000 0.000000 0.000000 1.000000 0.000000 0.000000 0.000000 0.000000 1.000000 21.14286 0.000000 -66.85714 -25.00000 0.000000 0.000000 0.000000 0.000000 0.000000 0.000000 0.000000 1.000000 -21.14286 0.000000 -66.85714 25.00000 0.000000 0.000000 0.000000 0.000000 0.000000 0.000000 10.00000 0.000000 1.000000 0.000000 0.000000 1.000000 0.000000 0.000000 0.000000 -10.00000 0.000000 1.000000 0.000000 0.000000 1.000000 0.000000 0.000000 
0.000000 43.52852 0.000000 1.000000 0.000000 0.000000 1.000000 0.000000 0.000000 1.000000 0.000000 0.000000 1.000000 0.000000 0.000000 1.000000 0.000000 0.000000 0.000000 0.000000 1.000000 15.85714 0.000000 -65.14286 -25.00000 0.000000 0.000000 0.000000 0.000000 0.000000 0.000000 0.000000 1.000000 -15.85714 0.000000 -65.14286 25.00000 0.000000 0.000000 0.000000 0.000000 0.000000 0.000000 10.00000 0.000000 1.000000 0.000000 0.000000 1.000000 0.000000 0.000000 0.000000 -10.00000 0.000000 1.000000 0.000000 0.000000 1.000000 0.000000 0.000000 
0.000000 43.52852 0.000000 1.000000 0.000000 0.000000 1.000000 0.000000 0.000000 1.000000 0.000000 0.000000 1.000000 0.000000 0.000000 1.000000 0.000000 0.000000 0.000000 0.000000 1.000000 10.57143 0.000000 -63.42857 -25.00000 0.000000 0.000000 0.000000 0.000000 0.000000 0.000000 0.000000 1.000000 -10.57143 0.000000 -63.42857 25.00000 0.000000 0.000000 0.000000 0.000000 0.000000 0.000000 10.00000 0.000000 1.000000 0.000000 0.000000 1.000000 0.000000 0.000000 0.000000 -10.00000 0.000000 1.000000 0.000000 0.000000 1.000000 0.000000 0.000000 
0.000000 43.52852 0.000000 1.000000 0.000000 0.000000 1.000000 0.000000 0.000000 1.000000 0.000000 0.000000 1.000000 0.000000 0.000000 1.000000 0.000000 0.000000 0.000000 0.000000 1.000000 5.285714 0.000000 -61.71429 -25.00000 0.000000 0.000000 0.000000 0.000000 0.000000 0.000000 0.000000 1.000000 -5.285714 0.000000 -61.71429 25.00000 0.000000 0.000000 0.000000 0.000000 0.000000 0.000000 10.00000 0.000000 1.000000 0.000000 0.000000 1.000000 0.000000 0.000000 0.000000 -10.00000 0.000000 1.000000 0.000000 0.000000 1.000000 0.000000 0.000000 
0.000000 43.52852 0.000000 1.000000 0.000000 0.000000 1.000000 0.000000 0.000000 1.000000 0.000000 0.000000 1.000000 0.000000 0.000000 1.000000 0.000000 0.000000 0.000000 0.000000 1.000000 0.000000 0.000000 -60.00000 -25.00000 0.000000 0.000000 0.000000 0.000000 0.000000 0.000000 0.000000 1.000000 0.000000 0.000000 -60.00000 25.00000 0.000000 0.000000 0.000000 0.000000 0.000000 0.000000 10.00000 0.000000 1.000000 0.000000 0.000000 1.000000 0.000000 0.000000 0.000000 -10.00000 0.000000 1.000000 0.000000 0.000000 1.000000 0.000000 0.000000 
0.000000 43.52852 0.000000 1.000000 0.000000 0.000000 1.000000 0.000000 0.000000 1.000000 0.000000 0.000000 1.000000 0.000000 0.000000 1.000000 0.000000 0.000000 0.000000 0.000000 1.000000 -5.200000 0.6666667 -56.00000 -25.00000 0.000000 0.000000 0.000000 0.000000 0.000000 0.000000 0.000000 1.000000 5.200000 -0.6666667 -56.00000 25.00000 0.000000 0.000000 0.000000 0.000000 0.000000 0.000000 10.00000 0.000000 1.000000 0.000000 0.000000 1.000000 0.000000 0.000000 0.000000 -10.00000 0.000000 1.000000 0.000000 0.000000 1.000000 0.000000 0.000000 
